<?xml version="1.0" standalone="no"?>
<!DOCTYPE svg PUBLIC "-//W3C//DTD SVG 20010904//EN"
 "http://www.w3.org/TR/2001/REC-SVG-20010904/DTD/svg10.dtd">
<svg version="1.0" xmlns="http://www.w3.org/2000/svg"
 width="700.000000pt" height="700.000000pt" viewBox="0 0 700.000000 700.000000"
 preserveAspectRatio="xMidYMid meet">
<metadata>
Created by potrace 1.11, written by Peter Selinger 2001-2013
</metadata>
<g transform="translate(0.000000,700.000000) scale(0.100000,-0.100000)"
fill="#000000" stroke="none">
<path d="M281 6980 c-107 -39 -193 -116 -244 -220 l-32 -65 0 -3195 0 -3195
29 -60 c53 -108 149 -192 261 -229 47 -15 303 -16 3220 -14 l3170 3 65 31 c95
45 162 111 207 202 l38 76 0 3185 0 3186 -23 57 c-26 64 -104 157 -166 195
-21 14 -64 34 -94 44 -54 19 -138 19 -3216 19 -3112 -1 -3162 -1 -3215 -20z
m1548 -1021 c237 -22 386 -83 511 -208 155 -155 260 -381 307 -661 23 -141 21
-412 -5 -560 -49 -272 -149 -479 -308 -637 -89 -88 -213 -153 -356 -185 -87
-20 -127 -22 -650 -25 l-558 -4 0 1145 0 1146 473 0 c259 0 523 -5 586 -11z
m1543 -1 c3 -7 83 -392 179 -855 96 -464 177 -843 180 -843 3 0 83 377 178
838 95 460 175 845 177 855 5 16 25 17 234 17 l228 0 5 -22 c4 -13 85 -390
181 -838 97 -448 179 -826 182 -840 l6 -25 9 25 c4 14 78 381 164 815 86 435
161 811 166 838 l11 47 245 0 245 0 -7 -27 c-10 -44 -605 -2194 -616 -2230
l-11 -33 -208 0 c-190 0 -209 2 -214 18 -2 9 -89 412 -192 895 -103 483 -191
872 -194 865 -4 -7 -90 -410 -191 -895 l-184 -883 -210 0 -210 0 -319 1133
c-176 622 -322 1138 -324 1145 -3 9 49 12 241 12 187 0 246 -3 249 -12z m828
-4768 l0 -210 -1750 0 -1750 0 0 210 0 210 1750 0 1750 0 0 -210z"/>
<path d="M1240 4825 l0 -755 263 0 c144 0 282 5 306 11 181 41 309 193 363
429 18 80 22 127 22 300 1 214 -8 292 -46 410 -63 195 -183 313 -356 349 -30
6 -159 11 -302 11 l-250 0 0 -755z"/>
</g>
</svg>
